<svg viewBox="0 0 132 60" xmlns="http://www.w3.org/2000/svg"><g fill="none" fill-rule="evenodd"><path d="m0 59.985h132v-59.985h-132z" fill="#b22352"/><g fill="#fffffe"><path d="m25.29125 32.60325v-.41675c1.89525.1515 3.858-.065 5.5945-.93175 1.168-.583 2.2365-1.641 2.49175-3.11175-1.39625 1.3045-3.4835 1.16475-5.169.9625-.9755-.117-1.9455-.3045-2.91725-.467v-5.9655h13.347v-4.87575h-18.7925v10.615c-.942.145-1.86525.41-2.731.84225-1.168.583-2.2365 1.64075-2.4915 3.1115 1.39625-1.3045 3.48325-1.16475 5.16875-.96275l.05375.00825v11.30025h18.9705v-4.8765h-13.525z"/><path d="m60.398 33.1375-11.67425-15.34025h-5.05425v24.9145h5.40975v-15.83875l12.066 15.83875h4.66275v-24.9145h-5.41z"/><path d="m87.888 30.3255c0 4.413-3.02575 7.43925-7.51 7.43925h-4.23575v-15.02025h4.23575c4.48425 0 7.51 3.0965 7.51 7.50975zm-7.51-12.52825h-9.71675v24.9145h9.71675c7.83025 0 13.2405-5.446 13.2405-12.4575v-.0715c0-7.011-5.41025-12.3855-13.2405-12.3855z"/><path d="m111.16775 17.79725-6.05075 10.001-5.944-10.001h-6.40675l9.57475 15.09075v9.82375h5.48125v-9.93025l9.57425-14.98425z"/></g></g></svg>